<svg xmlns="http://www.w3.org/2000/svg" height="1024" preserveAspectRatio="none" style="display: block;" version="1.1" viewBox="0 0 2048 2048" width="1024">
<defs>
	<linearGradient gradientUnits="userSpaceOnUse" id="Gradient1" x1="1154.41" x2="1135.93" y1="652.962" y2="658.227">
		<stop class="stop0" offset="0" stop-color="rgb(246,193,205)" stop-opacity="1"></stop>
		<stop class="stop1" offset="1" stop-color="rgb(228,206,212)" stop-opacity="1"></stop>
	</linearGradient>
</defs>
<path d="M 0 0 L 2048 0 L 2048 2048 L 0 2048 L 0 0 z" fill="rgb(247,246,241)" transform="translate(0,0)"></path>
<path d="M 1031.91 267.868 L 1035.31 269.255 C 1039.48 274.811 1039.68 284.257 1042.4 288.29 C 1060.08 314.527 1082.29 359.648 1035.65 372.817 L 1035.53 391.023 C 1041.56 390.93 1050.66 389.989 1055.36 393.461 C 1057.24 400.022 1056 452.772 1055.97 464.566 C 1055.81 526.664 1053.74 589.823 1054.56 651.904 C 1068.69 656.274 1083.84 666.363 1094.34 676.672 C 1097.93 680.188 1100.68 684.455 1104.55 687.179 L 1106.5 685.975 C 1109.87 679.436 1108.53 668.742 1108.66 661.336 L 1109.56 621.38 L 1111.79 511.267 C 1112.12 487.799 1111.76 462.405 1112.82 439.22 C 1119.97 438.759 1128.93 439.092 1136.25 439.178 C 1136.4 432.769 1136.11 426.39 1135.9 419.983 C 1122.64 414.594 1114.14 409.963 1110.09 394.633 C 1104.31 372.814 1116.36 356.992 1127.83 340.174 C 1132.41 333.462 1137.1 324.956 1141.31 317.664 C 1144.85 317.248 1143.48 316.721 1145.93 318.268 C 1150.73 325.946 1151.27 332.936 1154.64 339.649 C 1160.94 352.215 1171.03 362.842 1173.15 377.266 C 1176.28 398.469 1168.29 416.372 1145.99 419.661 L 1146.03 439.119 C 1153.32 439.007 1160.43 439.171 1167.72 439.326 C 1168.77 461.256 1167.56 489.899 1167.33 512.16 L 1165.79 655.175 C 1192.62 650.36 1212.63 653.021 1238.31 660.903 C 1239 647.332 1238.78 632.283 1239.18 618.513 L 1242.2 517.617 C 1242.46 508.303 1242.78 471.649 1244.54 464.264 C 1249.29 460.258 1260.3 462.006 1266.98 462.376 C 1267.09 453.947 1266.89 445.154 1266.81 436.694 C 1246.76 430.3 1238.39 418.446 1239.74 396.946 C 1240.85 379.224 1251.52 366.786 1260.82 352.676 C 1265.08 346.219 1269.03 337.504 1275.02 332.596 L 1276.45 332.844 C 1280.93 339.481 1281.55 348.676 1285.36 355.613 C 1295.32 373.637 1311.38 392.885 1303.43 414.869 C 1298.86 427.51 1287.92 432.932 1276.47 437.744 C 1275.78 444.734 1275.74 454.992 1275.49 462.232 C 1283.81 462.107 1289.61 462.137 1297.87 462.805 C 1299.01 483.142 1297.61 513.845 1297.38 535.163 L 1293.83 704.722 L 1301.74 717.147 C 1332.02 673.599 1365.65 641.022 1412.82 616.088 C 1451.59 595.587 1532.79 563.535 1559.12 618.118 C 1582.06 665.659 1584.49 730.608 1569.12 780.635 C 1593.61 793.938 1609.88 807.599 1623.14 833.349 C 1625.95 838.423 1628.02 850.211 1632.1 854.109 C 1652.35 873.446 1670.7 889.471 1686.27 913.718 C 1721.31 968.307 1742.18 1042.55 1731.49 1107.29 C 1727.56 1131.09 1713.17 1147.17 1693.83 1159.65 C 1692.12 1172.15 1691.53 1188.08 1690.97 1200.87 C 1688.61 1254.57 1682.06 1309.04 1680.54 1362.66 C 1719.37 1386.54 1757.14 1433.93 1756.93 1481.58 C 1756.48 1581.62 1660.2 1646.16 1577.67 1681.8 C 1410.01 1754.21 1216.09 1778.01 1034.5 1778.78 C 926.16 1780.06 817.938 1771.2 711.248 1752.32 C 585.709 1729.52 270.943 1654.61 293.576 1462.28 C 298.064 1424.15 337.775 1383.18 369.032 1362.09 C 363.575 1294.91 358.872 1227.68 354.923 1160.39 C 314.219 1133.8 312.17 1092.44 316.642 1047.53 C 324.432 969.297 357.584 904.154 418.464 853.913 C 418.734 852.463 419.054 851.023 419.422 849.595 C 427.93 815.849 452.148 796.824 480.118 780.06 C 469.954 744.194 468.065 706.489 474.591 669.787 C 478.562 647.213 488.946 609.902 509.29 596.609 C 526.804 585.165 549.881 586.357 569.649 590.673 C 628.11 603.438 684.282 639.618 723.723 684.291 C 733.127 694.942 741.033 707.139 748.732 718.914 C 755.2 707.069 759.486 702.234 766.955 691.663 C 767.663 632.648 768.689 573.637 770.032 514.633 C 770.233 507.02 770.61 469.344 772.036 464.332 C 776.849 460.215 787.057 461.188 793.634 461.134 C 793.754 453.126 793.587 445.384 793.407 437.376 C 750.75 422.175 764.512 380.364 786.455 355.28 C 789.438 351.87 796.28 338.382 798.947 333.719 C 802.797 333.158 801.174 332.714 804.101 334.536 C 811.573 356.349 823.265 372.066 830.033 393.312 C 832.631 401.468 830.358 416.57 825.218 423.695 C 819.419 431.734 812.51 434.794 802.844 436.672 L 803.081 461.283 C 809.67 461.044 817.008 460.116 822.955 462.501 C 825.224 465.046 824.981 466.068 825.086 469.714 C 826.865 531.473 822.553 595.559 825.431 657.113 C 850.451 650.892 866.912 651.237 892.331 656.187 C 892.552 635.422 894.074 448.658 896.834 446.538 C 900.781 443.505 913.542 444.991 918.723 445.091 L 918.543 423.75 C 914.497 422.108 910.848 420.57 907.226 418.246 C 886.293 406.239 887.652 373.77 901.679 356.959 C 911.689 344.962 915.933 332.388 924.404 320.02 C 927.092 318.919 925.699 319.157 928.706 319.869 C 932.508 325.793 932.443 332.706 935.506 338.803 C 946.066 359.824 965.789 382.509 952.629 407.144 C 947.655 416.454 937.671 420.263 928.03 422.994 L 928.092 444.996 C 934.068 444.854 944.646 443.813 949.446 446.843 C 952.096 453.904 951.144 519.763 951.131 531.867 L 950.753 680.897 C 961.618 666.018 980.199 656.031 997.319 650.276 L 1000.85 453.046 C 1001.08 443.885 1001.42 399.115 1003.74 393.105 C 1008.96 389.373 1019.16 390.978 1026.02 391.339 L 1026.02 373.099 C 1007.14 367.334 997.957 357.02 998.241 336.419 C 998.519 316.2 1011.32 302.537 1021.65 286.612 C 1025.42 280.805 1026.67 272.851 1031.91 267.868 z" fill="rgb(30,43,78)" transform="translate(0,0)"></path>
<path d="M 1587.6 1162.44 C 1628.19 1162.68 1635.42 1177.34 1684.09 1164.9 L 1671.5 1340.13 C 1670.16 1358.99 1670.89 1390.66 1666.19 1407.74 C 1663.21 1418.58 1654.04 1430.13 1646.7 1438.5 C 1551.2 1547.33 1274.89 1589.08 1137.32 1597.7 C 947.112 1609.63 713.841 1593.36 536.353 1521.63 C 494.344 1504.66 451.744 1484.12 417.62 1453.77 C 405.034 1442.57 389.634 1426.42 383.599 1410.41 C 377.992 1395.53 377.803 1350.12 376.77 1331.76 C 374.779 1312.08 373.81 1290.34 372.367 1270.48 C 369.538 1235.21 367.077 1199.91 364.984 1164.58 C 405.129 1176.91 414.62 1165.14 451.224 1163.36 C 544.347 1158.83 518.761 1238.83 569.574 1282.59 C 581.432 1292.81 594.703 1299.7 609.685 1302.37 C 665.765 1312.39 687.67 1254.09 737.304 1251.09 C 784.357 1248.47 804.131 1295.09 834.121 1321.69 C 854.302 1339.59 880.13 1346.2 906.21 1339.5 C 952.528 1327.6 969.67 1272.16 1019.29 1268.7 C 1054.95 1266.22 1075.81 1290.85 1099.55 1312.89 C 1118.5 1330.28 1142.67 1344.62 1169.1 1342.04 C 1209.4 1338.7 1227.42 1310.76 1250.49 1282.48 C 1275.92 1251.31 1310.86 1240.44 1346.55 1262.31 C 1375.68 1280.17 1397.11 1306.2 1434.99 1303.29 C 1467.23 1301.61 1493.53 1276.71 1505.43 1247.59 C 1524.19 1201.66 1530.48 1166.29 1587.6 1162.44 z" fill="rgb(247,246,241)" transform="translate(0,0)"></path>
<path d="M 496.178 1309.08 C 499.013 1308.93 502.73 1308.63 505.488 1309.2 C 507.934 1309.71 510.211 1310.83 512.105 1312.46 C 528.035 1326.34 545.411 1350.16 560.758 1365.55 C 568.014 1372.83 560.515 1387.27 551.786 1391.59 L 550.154 1392.43 C 545.141 1393.27 536.469 1393.39 533.549 1388.93 C 524.228 1374.68 480.836 1340.22 484.3 1324.01 C 485.408 1318.56 488.7 1313.81 493.408 1310.85 C 494.367 1310.24 495.223 1309.71 496.178 1309.08 z" fill="rgb(30,43,78)" transform="translate(0,0)"></path>
<path d="M 498.862 1317.54 C 503.024 1318.32 505.375 1318.91 508.416 1322.17 C 522.224 1336.98 536.136 1351.86 549.483 1367.09 C 555.417 1373.86 556.215 1377.5 548.775 1382.74 L 547.134 1383.93 C 546.251 1383.95 545.368 1383.98 544.484 1383.98 C 539.524 1384 508.122 1346.99 502.791 1341.17 C 499.433 1337.51 493.069 1330.88 493.397 1325.57 C 493.62 1321.96 496.395 1319.82 498.862 1317.54 z" fill="rgb(6,176,197)" transform="translate(0,0)"></path>
<path d="M 1541 1309.13 C 1577.47 1307.25 1565.31 1341.12 1545.82 1356.1 C 1534.07 1365.14 1527.03 1384.74 1510.14 1392.45 C 1489.46 1395.33 1481.11 1372.89 1491.23 1363.15 C 1503.78 1351.07 1528.51 1317.11 1541 1309.13 z" fill="rgb(30,43,78)" transform="translate(0,0)"></path>
<path d="M 1544.6 1317.74 C 1561.84 1319.33 1554.69 1333.5 1546.14 1341.08 C 1533.65 1352.18 1520.78 1375 1507.74 1383.78 L 1506.67 1383.57 C 1490.55 1380.47 1495.87 1370.88 1504.43 1362.43 C 1517.75 1349.28 1530.91 1329.66 1544.6 1317.74 z" fill="rgb(6,176,197)" transform="translate(0,0)"></path>
<path d="M 1027.74 1439.13 C 1031.49 1438.83 1035.83 1438.05 1039.52 1439.13 C 1047.33 1441.42 1090.55 1485.16 1095.04 1493.49 C 1097.16 1497.41 1097.86 1502.14 1096.48 1506.44 C 1094.6 1512.32 1090.82 1515.98 1085.54 1518.86 L 1084.02 1519.08 C 1081.2 1519.51 1079.86 1519.75 1077.01 1519.37 L 1071.54 1518.6 C 1054.81 1505.55 1036.36 1482.83 1020.94 1467.53 C 1012.07 1458.73 1018 1445.24 1027.74 1439.13 z" fill="rgb(30,43,78)" transform="translate(0,0)"></path>
<path d="M 1030.18 1447.89 C 1036.62 1447.89 1038.28 1447.84 1043.14 1452.81 C 1057.31 1467.3 1072.27 1481.25 1086.18 1495.95 C 1090.95 1500.99 1086.45 1506.13 1082.6 1510 C 1079.37 1510.13 1077.04 1510.56 1074.37 1508.51 C 1068.27 1503.82 1025.86 1460.99 1025.43 1456.52 C 1025.08 1452.98 1028.05 1450.27 1030.18 1447.89 z" fill="rgb(6,176,197)" transform="translate(0,0)"></path>
<path d="M 1310.28 1424.07 C 1312.96 1423.98 1315.77 1423.69 1318.39 1424.38 C 1326.41 1426.49 1377.84 1460.8 1381.35 1467.36 C 1383.57 1471.52 1383.73 1477.12 1382.18 1481.53 C 1379.92 1487.92 1374.86 1491.34 1368.93 1493.99 C 1348.72 1494.44 1334.4 1473.51 1317.76 1466.57 C 1297.95 1458.29 1283.8 1433.44 1310.28 1424.07 z" fill="rgb(30,43,78)" transform="translate(0,0)"></path>
<path d="M 1310.75 1432.71 C 1325.35 1434.14 1357.76 1462.43 1372.16 1470.45 C 1376.37 1472.8 1372.03 1481 1368.39 1484.17 C 1351.65 1481.97 1324.57 1457.56 1308.6 1448.74 C 1301.61 1444.89 1306.46 1436.91 1310.75 1432.71 z" fill="rgb(229,85,99)" transform="translate(0,0)"></path>
<path d="M 736.221 1424.06 C 750.241 1424.19 759.496 1430.72 757.151 1446.01 C 754.945 1460.4 728.285 1469.44 718.099 1479.2 C 713.355 1483.75 699.508 1491.95 693.822 1494.22 C 668.668 1494.91 663.857 1468.44 687.122 1455.75 C 702.734 1447.24 718.812 1431.27 736.221 1424.06 z" fill="rgb(30,43,78)" transform="translate(0,0)"></path>
<path d="M 737.751 1433.78 C 739.185 1433.89 740.488 1433.93 741.854 1434.37 C 744.031 1435.06 746.131 1436.36 747.21 1438.42 C 748.169 1440.26 748.116 1442.23 747.41 1444.14 C 744.572 1451.83 700.304 1480.86 691.4 1485.04 C 690.712 1484.94 690.021 1484.86 689.336 1484.73 C 686.657 1484.26 684.13 1482.94 682.59 1480.65 C 681.455 1478.96 680.761 1477.06 681.179 1475.01 C 682.771 1467.23 728.864 1439.29 737.751 1433.78 z" fill="rgb(229,85,99)" transform="translate(0,0)"></path>
<path d="M 1634.3 868.715 C 1687.94 916.222 1716.31 981.561 1723.38 1052.18 C 1726.03 1078.75 1725.64 1116.04 1706.87 1136.9 C 1668.13 1179.93 1624.24 1149.68 1577.75 1153.38 C 1577.03 1153.46 1576.31 1153.54 1575.59 1153.62 C 1507.28 1164.35 1514.68 1221.46 1482.91 1266.24 C 1475.39 1276.84 1460.83 1287.65 1448.01 1291.27 C 1387.73 1308.32 1366.64 1238.7 1306.77 1241.16 C 1236.51 1244.04 1233.68 1323.53 1172.26 1331.87 C 1129.07 1337.73 1104.5 1301.77 1075.59 1277.69 C 1064.02 1268.06 1046.39 1260.89 1031.15 1259.21 C 966.362 1252.04 949.037 1325.26 894.694 1331.79 C 840.609 1338.3 822.368 1286.52 788.632 1258.78 C 760.215 1235.41 724.359 1236.19 694.238 1256.12 C 672.76 1270.33 655.745 1289.99 628.423 1293.11 C 615.701 1294.52 602.845 1292.14 591.477 1286.25 C 540.819 1260.47 551.129 1201.05 511.725 1169.84 C 480.148 1144.04 444.775 1154.93 409.33 1159.53 C 345.999 1167.75 321.109 1121.13 325.206 1064.51 C 329.432 1006.11 343.212 958.257 377.642 909.963 C 388.649 894.523 401.791 884.621 412.787 870.799 L 413.629 869.727 C 414.446 875.265 414.571 887.6 415.456 895.228 C 410.821 902.672 407.473 909.696 405.424 918.256 C 400.623 938.322 404.885 956.272 415.542 973.64 C 458.736 1044.04 602.452 1087.72 678.697 1105.77 C 909.151 1160.34 1220.99 1157.69 1446.68 1084.19 C 1490.19 1070.03 1533.23 1053.86 1572.28 1029.65 C 1601.64 1011.43 1636.29 983.736 1644.29 948.156 C 1648.6 928.961 1643.69 911.883 1633.51 895.563 C 1634.27 886.878 1634.19 877.485 1634.3 868.715 z" fill="rgb(245,143,154)" transform="translate(0,0)"></path>
<path d="M 386.072 1058.1 C 396.986 1057.62 445.594 1056.69 454.942 1059.24 C 468.16 1062.85 473.388 1086.46 452.222 1094.77 C 440.495 1095.16 391.997 1096.31 384.171 1093.47 C 378.763 1091.51 374.474 1087.73 372.189 1082.43 C 370.441 1078.38 370.639 1073.43 372.449 1069.43 C 375.192 1063.36 380.093 1060.38 386.072 1058.1 z" fill="rgb(30,43,78)" transform="translate(0,0)"></path>
<path d="M 386.449 1067.17 C 406.592 1067.05 427.286 1067.14 447.403 1067.48 C 457.003 1067.64 460.01 1077.86 452.025 1085.26 C 434.554 1085.45 405.59 1085.3 387.494 1084.92 C 379.738 1084.75 378.656 1074.55 386.449 1067.17 z" fill="rgb(6,176,197)" transform="translate(0,0)"></path>
<path d="M 1437.02 1130.12 C 1458.79 1129.27 1464.18 1142.16 1456.47 1161.46 C 1451.89 1172.95 1447.6 1184.87 1442.51 1196.16 C 1437.46 1207.36 1436.32 1215.84 1424.39 1221.18 C 1409.67 1221.43 1395.62 1212.7 1402.75 1196.45 C 1411.46 1176.59 1418.31 1155.82 1428.03 1136.62 C 1429.42 1133.86 1434.4 1131.41 1437.02 1130.12 z" fill="rgb(30,43,78)" transform="translate(0,0)"></path>
<path d="M 1439.51 1138.88 C 1461.33 1141.1 1446.64 1157.43 1441.69 1172.93 C 1438.59 1182.64 1429.28 1206.68 1422.23 1212.41 C 1417.64 1211.57 1409 1208.48 1411.43 1202.61 C 1416.92 1189.39 1429.83 1146.13 1439.51 1138.88 z" fill="rgb(254,185,32)" transform="translate(0,0)"></path>
<path d="M 1598.04 1058.28 C 1608.27 1057.54 1658.27 1056.53 1666.84 1059.37 C 1680.46 1063.88 1684.34 1086.85 1663.25 1094.63 C 1652.11 1095.29 1600.88 1095.9 1593.22 1092.61 C 1588.84 1090.69 1585.45 1087.03 1583.88 1082.51 C 1579.71 1070.78 1587.52 1062.04 1598.04 1058.28 z" fill="rgb(30,43,78)" transform="translate(0,0)"></path>
<path d="M 1596.74 1067.05 C 1606.52 1066.99 1661.59 1065.34 1666.26 1069.69 C 1668.25 1071.55 1669.19 1074.34 1669.11 1077.03 C 1669.03 1079.61 1668.07 1081.42 1666.15 1083.17 C 1665.96 1083.34 1665.76 1083.5 1665.56 1083.67 L 1664.22 1084.87 C 1645.67 1086.29 1626.24 1084.25 1608 1085.39 C 1595.16 1086.19 1586.34 1079.51 1595.81 1068.21 L 1596.74 1067.05 z" fill="rgb(6,176,197)" transform="translate(0,0)"></path>
<path d="M 1182.37 1183.93 C 1189.45 1183.84 1194.94 1184.31 1199.64 1190.32 C 1203.34 1195.03 1204.86 1201.09 1203.82 1206.99 C 1201.9 1217.83 1175.72 1231.11 1167.03 1239.02 C 1161.13 1244.37 1149.6 1251.89 1142.7 1255.54 C 1119.49 1257.48 1114.93 1232.77 1127.14 1223.56 C 1141.05 1213.05 1167.51 1192.09 1182.37 1183.93 z" fill="rgb(30,43,78)" transform="translate(0,0)"></path>
<path d="M 1183.46 1193.7 C 1195.06 1193.41 1198.92 1204.46 1191.27 1209.54 C 1175.34 1220.12 1157.14 1236.63 1140.99 1245.87 C 1134.88 1246.1 1129.88 1244.02 1130.24 1236.51 C 1130.58 1232.79 1134.46 1229.47 1137.22 1227.56 C 1153.03 1216.63 1168.25 1205.45 1183.46 1193.7 z" fill="rgb(254,185,32)" transform="translate(0,0)"></path>
<path d="M 667.219 1142.02 C 689.193 1140.41 696.112 1163.96 684.571 1173.26 C 670.604 1184.52 646.276 1206.11 631.653 1214.89 C 604.572 1216.29 601.296 1189.38 623.88 1175.22 C 638.008 1166.37 650.424 1150.31 667.219 1142.02 z" fill="rgb(30,43,78)" transform="translate(0,0)"></path>
<path d="M 670.466 1150.8 C 697.44 1155.37 663.899 1178.62 656.551 1184.09 C 648.629 1189.99 640.345 1199.25 631.987 1204.1 L 628.584 1206.06 C 597.071 1200.68 643.97 1173.18 649.892 1166.55 C 652.547 1163.57 663.937 1154.8 667.013 1152.9 L 670.466 1150.8 z" fill="rgb(254,185,32)" transform="translate(0,0)"></path>
<path d="M 927.553 1197.13 C 946.998 1196.91 960.142 1227.7 927.488 1234.83 L 918.484 1236.82 L 913.982 1237.79 L 890.987 1242.8 L 886.487 1243.75 C 881.444 1244.77 879.381 1245.01 874.374 1245.61 C 860.224 1246.92 850.022 1230.86 857.153 1218.57 C 861.343 1211.36 870.647 1209.91 878.016 1208.24 L 882.517 1207.2 C 897.568 1203.86 912.519 1200.5 927.553 1197.13 z" fill="rgb(30,43,78)" transform="translate(0,0)"></path>
<path d="M 922.924 1208.29 C 933.545 1206.61 939.9 1208.31 936.167 1220.58 C 934.742 1225.26 910.834 1228.61 905.483 1229.79 C 896.372 1231.75 887.282 1233.81 878.216 1235.97 C 869.714 1237.3 862.363 1235.09 866.129 1222.99 C 867.121 1219.8 877.012 1217.94 880.515 1217.22 L 885.517 1216.19 C 897.954 1213.71 910.502 1210.51 922.924 1208.29 z" fill="rgb(6,176,197)" transform="translate(0,0)"></path>
<path d="M 1679.4 1372.6 C 1711.04 1398.23 1739.19 1426.42 1746.35 1468.61 C 1750.72 1494.32 1741.02 1524.18 1725.08 1544.16 C 1643.38 1646.58 1428.79 1694.54 1305.04 1711.37 C 1061.82 1744.46 782.775 1738.08 546.665 1668.47 C 484.213 1650.05 414.894 1622.16 362.812 1582.8 C 329.425 1557.56 306.945 1530.34 301.104 1488.24 C 299.045 1438.52 332.08 1402.03 368.997 1373.36 C 370.6 1392.79 368.321 1406.36 378.904 1422.41 C 377.122 1465.39 378.326 1488.68 408.265 1522.49 C 502.644 1629.06 775.233 1668.35 911.459 1677.21 C 1099.28 1689.41 1317.73 1673.95 1494.89 1608.68 C 1540.44 1591.9 1588.92 1570.24 1625.58 1537.75 C 1647.48 1518.34 1666.94 1492.95 1669.67 1462.91 C 1670.85 1449.95 1669.89 1436.76 1671.13 1423.84 C 1671.65 1418.43 1675.43 1414.62 1676.81 1409.6 C 1679.31 1400.5 1678.76 1382.86 1679.4 1372.6 z" fill="rgb(244,218,168)" transform="translate(0,0)"></path>
<path d="M 388.098 1436.85 C 394.515 1442.91 400.338 1451 406.658 1456.69 C 458.342 1503.25 533.26 1534.6 598.591 1553.82 C 820.573 1619.13 1067.39 1624.56 1295.02 1589.4 C 1399.38 1573.27 1596.24 1524.52 1660.29 1435.7 C 1661 1458.36 1661.17 1468.21 1651.99 1488.92 C 1624.63 1543.66 1539.54 1583.54 1483.34 1602.79 C 1300.03 1664.63 1098.56 1679 905.899 1667.08 C 766.245 1658.44 607.101 1630.85 481.825 1565.58 C 457.707 1553.02 432.868 1536 414.768 1515.71 C 392.826 1491.11 385.944 1469.25 388.098 1436.85 z" fill="rgb(254,185,32)" transform="translate(0,0)"></path>
<path d="M 1379.76 875.134 C 1390.22 875.584 1392.58 875.611 1402.26 871.69 C 1400.77 909.912 1406.02 925.77 1428.18 956.315 L 1426.96 957.121 C 1395.52 978.357 1410.56 1007.92 1425.12 1034.15 C 1430.63 1043.84 1447.29 1049.97 1457.44 1046.44 C 1487.64 1035.84 1517.8 1024.69 1547.8 1013.51 C 1567.4 1006.2 1572.26 996.725 1574.03 976.564 C 1575.17 976.059 1576.29 975.532 1577.4 974.982 C 1605.83 960.944 1621.44 938.336 1631.2 909.049 C 1643.28 944.507 1630.35 968.072 1604.97 992.924 C 1585.39 1011.57 1561.68 1025.57 1537.67 1037.74 C 1475.01 1069.5 1402.5 1089.49 1333.88 1103.45 C 1109.44 1149.11 820.482 1145.5 601.895 1073.83 C 545.963 1055.49 447.557 1017.41 420.153 962.249 C 411.126 944.077 411.325 928.346 417.787 909.398 C 418.454 911.622 419.184 913.827 419.976 916.01 C 429.99 943.355 448.356 963.321 474.594 975.583 C 469.585 1005.56 495.021 1011.97 517.151 1020.21 C 539.884 1028.67 561.948 1037.91 585.136 1045.41 C 608.361 1052.92 620.635 1041.13 630.61 1020.81 C 642.689 995.324 647.732 973.38 620.287 956.144 C 643.474 928.547 647.112 907.357 646.901 872.161 C 655.554 876.274 658.869 876.038 668.146 875.846 C 655.342 897.806 647.834 917.708 647.213 943.517 C 646.481 976.084 658.78 1007.6 681.381 1031.06 C 710.154 1060.57 742.55 1070.94 782.632 1071.44 C 785.143 1109.94 821.622 1110.8 851.208 1109.8 C 896.777 1108.27 934.681 1129.52 946.909 1072.1 C 1001.08 1103.92 1044.43 1104.86 1099.04 1073.61 C 1101.31 1101.8 1113.39 1111.32 1141.18 1111.01 C 1164.56 1110.61 1187.78 1109.32 1211.19 1109.02 C 1222.59 1108.88 1237.34 1108.84 1246.91 1101.56 C 1257.17 1093.76 1259.36 1082.88 1261.27 1070.95 C 1290.87 1071.95 1311.07 1068.93 1337.28 1054.22 C 1387.26 1026.15 1410.42 970.044 1397.06 914.712 C 1393.45 899.729 1387.3 888.343 1379.76 875.134 z" fill="rgb(247,246,241)" transform="translate(0,0)"></path>
<path d="M 1014.3 842.74 C 1081.67 837.497 1140.56 887.826 1145.88 955.196 C 1151.19 1022.57 1100.93 1081.51 1033.57 1086.9 C 966.097 1092.3 907.044 1041.94 901.719 974.463 C 896.395 906.989 946.818 847.991 1014.3 842.74 z" fill="rgb(6,176,197)" transform="translate(0,0)"></path>
<path d="M 990.169 888.138 C 996.694 887.499 1004.03 889.17 1004.54 897.391 C 1004.66 908.752 992.756 907.587 985.506 911.04 C 967.113 919.801 954.486 936.403 951.905 956.626 C 950.735 965.793 952.834 969.201 946.428 976.028 C 940.697 977.643 931.972 978.057 931.204 970.478 C 927.27 931.636 953.909 896.302 990.169 888.138 z" fill="rgb(247,246,241)" transform="translate(0,0)"></path>
<path d="M 1254.45 824.412 C 1256.16 824.156 1258.58 824.094 1260.37 824.039 C 1330.76 821.415 1397.75 882.064 1391.19 954.58 C 1385.63 1016.02 1335.43 1059.97 1274.62 1061.15 L 1260.78 1061.06 C 1261.38 1018.05 1242.6 1011.14 1204.4 1013.27 L 1174.31 1014.98 C 1141.09 1016.79 1151.68 1007.87 1155.15 982.941 C 1159.08 954.736 1153.23 931.433 1142.75 905.562 C 1164.22 857.873 1201.66 828.782 1254.45 824.412 z" fill="rgb(254,185,32)" transform="translate(0,0)"></path>
<path d="M 1295.62 862.922 C 1315.28 862.343 1331.2 872.117 1344.45 886.172 C 1355.65 898.066 1365.1 917.348 1365.13 934.019 C 1365.14 938.504 1361.67 941.201 1358.57 943.839 C 1347.81 944.607 1347.43 941.323 1345.17 930.489 C 1342.33 912.628 1323.3 887.687 1305.02 883.77 C 1293 881.195 1283.38 875.044 1295.62 862.922 z" fill="rgb(247,246,241)" transform="translate(0,0)"></path>
<path d="M 777.092 824.42 C 795.04 823.208 813.045 825.709 829.984 831.765 C 867.507 845.253 889.399 869.242 906.043 904.189 C 892.57 931.768 887.081 957.894 893.006 989.074 C 894.221 995.468 899.213 1004.77 898.029 1011.06 C 874.413 1030.52 794.048 985.912 783.044 1046.27 C 783.318 1051.14 783.289 1055.96 783.315 1060.84 C 781.53 1061.07 779.739 1061.26 777.944 1061.41 C 751.219 1063.62 716.604 1049.33 696.624 1032.03 C 674.093 1012.51 659.377 985.898 657.102 956.075 C 654.779 923.628 665.632 891.614 687.207 867.269 C 709.68 841.539 743.328 826.9 777.092 824.42 z" fill="rgb(254,185,32)" transform="translate(0,0)"></path>
<path d="M 744.891 863.206 C 751.793 862.662 760.457 865.373 758.742 874.524 C 757.126 883.141 740.476 884.371 732.784 889.457 C 718.057 899.196 708.545 911.413 704.284 929.018 L 703.171 933.526 C 701.768 939.255 701.445 940.131 697.755 944.744 C 695.561 944.978 693.703 945.256 691.499 945.084 C 689.052 944.874 686.807 943.642 685.316 941.691 C 682.72 938.309 682.797 933.566 683.407 929.569 C 688.4 896.82 712.29 870.046 744.891 863.206 z" fill="rgb(247,246,241)" transform="translate(0,0)"></path>
<path d="M 1504.94 597.421 C 1510.66 597.512 1517.75 597.952 1523.32 599.306 C 1554.72 606.925 1562.78 653.627 1566.7 679.791 C 1571.57 712.195 1569.47 746.063 1560.89 777.221 C 1510.77 760.179 1465.09 772.475 1429.05 810.567 C 1423.46 789.394 1413.82 785.427 1394.54 779.147 C 1399.47 773.928 1401.89 770.298 1405.13 764.02 C 1413.59 736.27 1382.16 737.433 1371.69 772.334 C 1352.44 766.307 1333.05 760.725 1313.54 755.593 C 1310.8 745.522 1309.88 738.103 1306.4 727.539 C 1346.62 661.74 1427.09 603.813 1504.94 597.421 z" fill="rgb(242,180,197)" transform="translate(0,0)"></path>
<path d="M 1388.16 670.969 C 1416.37 670.474 1403.64 698.672 1387.73 708.939 C 1380.68 708.793 1372.66 705.735 1371.25 698.474 C 1369.51 689.538 1380.44 674.854 1388.16 670.969 z" fill="rgb(30,43,78)" transform="translate(0,0)"></path>
<path d="M 1390.02 676.452 C 1406.01 679.865 1392.77 696.449 1386.03 702.726 C 1374.67 698.853 1377.61 695.567 1382.55 686.468 C 1385.2 681.599 1386.16 680.272 1390.02 676.452 z" fill="rgb(247,246,241)" transform="translate(0,0)"></path>
<path d="M 1455.04 633.005 C 1483.75 633.034 1468.3 662.74 1454.32 670.843 C 1427.25 672.873 1437.79 644.371 1455.04 633.005 z" fill="rgb(30,43,78)" transform="translate(0,0)"></path>
<path d="M 1455.79 639.61 C 1473.35 640.011 1459.5 658.105 1453.39 664.049 C 1450.63 664.059 1448.66 664.425 1446.55 662.488 C 1445.28 661.323 1444.52 659.708 1444.42 657.987 C 1444.13 652.482 1452.32 643.418 1455.79 639.61 z" fill="rgb(247,246,241)" transform="translate(0,0)"></path>
<path d="M 1518.26 634.022 C 1545.18 633.847 1534.05 662.377 1520.4 670.701 L 1518.69 671.773 C 1491.1 673.447 1502.19 644.856 1518.26 634.022 z" fill="rgb(30,43,78)" transform="translate(0,0)"></path>
<path d="M 1519.54 639.688 C 1535.08 641.507 1523.46 659.632 1517.15 665.638 C 1501.42 662.656 1513 647.145 1519.54 639.688 z" fill="rgb(247,246,241)" transform="translate(0,0)"></path>
<path d="M 1456.32 706.92 C 1478.23 711.173 1468.56 728.224 1459.02 740.499 C 1456.85 743.287 1452.79 744.623 1449.57 745.78 C 1441.65 743.302 1431.86 737.446 1436.9 727.49 C 1441.8 717.808 1446.07 711.109 1456.32 706.92 z" fill="rgb(30,43,78)" transform="translate(0,0)"></path>
<path d="M 1455.37 713.487 C 1470.14 715.08 1457.73 733.525 1452.04 738.126 L 1450.61 739.317 C 1435.63 733.907 1447.52 721.231 1455.37 713.487 z" fill="rgb(247,246,241)" transform="translate(0,0)"></path>
<path d="M 1515.99 706.966 C 1518.16 706.906 1521.39 706.712 1523.5 707.209 C 1526.93 708.009 1529.89 710.163 1531.7 713.181 C 1536.67 721.556 1525.64 740.65 1517.42 745.154 C 1488.71 744.426 1502.62 718.063 1515.99 706.966 z" fill="rgb(30,43,78)" transform="translate(0,0)"></path>
<path d="M 1519.25 713.497 C 1534.86 716.195 1521.23 733.867 1514.98 739.081 C 1499.49 734.17 1511.82 720.423 1519.25 713.497 z" fill="rgb(247,246,241)" transform="translate(0,0)"></path>
<path d="M 1545.5 676.421 C 1550.87 677.196 1552.91 677.274 1553.95 683.999 C 1556.69 701.716 1556.39 724.944 1546.88 740.638 C 1537.14 740.845 1541.43 734.872 1542.68 726.975 C 1544.77 719.757 1545.02 713.278 1545.7 706.002 C 1546.29 699.63 1543.11 682.485 1545.02 677.689 L 1545.5 676.421 z" fill="rgb(247,246,241)" transform="translate(0,0)"></path>
<path d="M 1476.63 610.998 C 1479.94 610.684 1485.87 611.207 1484.98 617.406 C 1484.58 620.16 1472.22 624.095 1468.81 625.494 L 1466.93 626.287 C 1461.01 628.043 1455.84 631.145 1458.84 621.005 C 1460.14 616.606 1472.59 612.546 1476.63 610.998 z" fill="rgb(247,246,241)" transform="translate(0,0)"></path>
<path d="M 532.48 598.142 C 560.256 595.484 588.156 605.086 613.438 615.795 C 663.329 636.927 718.115 681.036 743.442 729.182 C 739.082 738.617 736.856 746.342 734.124 756.324 C 719.529 758.531 692.396 768.303 676.332 772.851 L 676.029 771.414 C 672.741 755.196 659.018 731.665 643.47 752.772 C 642.036 763.049 648.898 772.296 655.536 779.29 C 635.929 785.604 624.183 790.137 620.506 812.363 C 583.305 772.689 540.617 759.305 487.891 776.728 C 478.03 727.715 476.132 663.11 502.367 617.946 C 509.495 605.676 519.326 600.993 532.48 598.142 z" fill="rgb(242,180,197)" transform="translate(0,0)"></path>
<path d="M 528.4 706.084 C 541.998 709.019 560.443 736.024 539.796 744.593 L 538.174 745.303 C 526.468 744.364 523.153 737.99 518.504 726.903 C 513.724 715.505 516.754 709.639 528.4 706.084 z" fill="rgb(30,43,78)" transform="translate(0,0)"></path>
<path d="M 528.026 712.34 C 537.06 717.846 547.061 729.322 538.224 739.247 C 530.431 735.508 525.29 727.017 523.889 718.468 C 523.491 716.036 526.521 713.885 528.026 712.34 z" fill="rgb(247,246,241)" transform="translate(0,0)"></path>
<path d="M 588.01 707.033 C 589.597 706.883 593.533 706.329 595.004 706.749 C 603.995 709.313 614.183 726.903 611.903 736 C 610.709 740.766 606.86 743.197 602.973 745.209 C 594.282 744.368 589.761 740.912 585.222 733.391 C 577.792 721.076 576.104 715.093 588.01 707.033 z" fill="rgb(30,43,78)" transform="translate(0,0)"></path>
<path d="M 590.098 712.352 C 598.528 712.916 610.02 729.583 604.002 737.867 L 602.986 739.357 C 592.686 737.211 590.923 729.806 587.283 720.446 C 586.006 717.159 588.333 714.918 590.098 712.352 z" fill="rgb(247,246,241)" transform="translate(0,0)"></path>
<path d="M 587.021 632.945 C 597.908 633.183 598.418 634.219 604.479 643.075 C 611.182 652.87 615.355 662.681 602.722 669.564 L 601.005 670.541 C 591.473 670.873 587.362 665.968 582.665 658.25 C 575.751 646.888 575.699 639.845 587.021 632.945 z" fill="rgb(30,43,78)" transform="translate(0,0)"></path>
<path d="M 589.033 638.301 C 597.723 640.299 601.335 649.532 604.1 657.513 C 605.004 660.125 601.558 663.008 599.977 664.733 C 591.879 662.26 580.182 648.285 587.801 639.761 L 589.033 638.301 z" fill="rgb(247,246,241)" transform="translate(0,0)"></path>
<path d="M 523.988 633.906 C 532.398 634.291 534.678 635.36 539.433 642.567 C 546.941 653.946 552.414 663.523 538.174 672.103 C 529.186 671.745 524.926 669.643 520.154 661.414 C 513.279 649.559 511.167 641.4 523.988 633.906 z" fill="rgb(30,43,78)" transform="translate(0,0)"></path>
<path d="M 525.93 639.431 C 535.516 643.891 544.775 656.376 536.424 666.299 C 526.977 662.505 524.163 655.31 521.912 645.461 C 521.403 643.235 524.63 640.798 525.93 639.431 z" fill="rgb(247,246,241)" transform="translate(0,0)"></path>
<path d="M 653.121 671.015 C 660.156 670.76 664.652 671.081 668.994 677.51 C 677.728 690.44 682.999 697.326 669.337 707.784 C 662.121 708.631 658.351 708.079 653.622 701.627 C 647.746 693.609 639.175 680.919 650.029 673.184 L 653.121 671.015 z" fill="rgb(30,43,78)" transform="translate(0,0)"></path>
<path d="M 654.705 676.342 C 664.807 678.553 675.411 691.956 668.035 702.322 C 656.915 701.818 657.351 694.896 652.289 684.976 C 650.648 681.76 653.004 679.001 654.705 676.342 z" fill="rgb(247,246,241)" transform="translate(0,0)"></path>
<path d="M 498.041 669.561 C 508.08 670.386 506.633 672.164 505.148 681.52 C 503.78 690.139 502.946 699.306 504.308 707.995 L 505.858 718.009 C 507.485 729.248 512.471 734.899 504.819 742.717 C 503.342 742.254 501.533 741.719 500.744 740.152 C 491.153 721.106 489.051 689.167 498.041 669.561 z" fill="rgb(247,246,241)" transform="translate(0,0)"></path>
<path d="M 598.928 629.437 C 595.581 628.179 586.16 626.575 585.627 622.564 C 582.752 600.915 617.21 634.78 620.99 638.578 C 621.509 639.14 621.97 639.753 622.447 640.351 C 623.745 641.978 627.755 644.641 627.542 646.948 C 627.455 647.886 626.665 648.845 626.226 649.609 C 625.757 650.427 625.82 650.38 625.469 651.188 C 625.215 651.774 624.954 652.357 624.685 652.937 C 619.835 656.228 616.507 654.347 613.402 649.645 C 609.117 643.156 604.048 635.221 598.928 629.437 z" fill="rgb(247,246,241)" transform="translate(0,0)"></path>
<path d="M 620.99 638.578 C 621.509 639.14 621.97 639.753 622.447 640.351 C 623.745 641.978 627.755 644.641 627.542 646.948 C 627.455 647.886 626.665 648.845 626.226 649.609 C 625.757 650.427 625.82 650.38 625.469 651.188 C 625.215 651.774 624.954 652.357 624.685 652.937 C 618.474 640.788 611.441 649.025 620.99 638.578 z" fill="rgb(245,219,220)" transform="translate(0,0)"></path>
<path d="M 334.764 1572.02 C 490.641 1708.4 819.5 1739.98 1021.47 1740.47 C 1072.6 1740.19 1123.71 1738.26 1174.72 1734.69 C 1325.79 1724.59 1508.7 1693.97 1642.8 1621.93 C 1664.16 1610.45 1695.6 1590.1 1711.79 1572.99 L 1713.13 1575.16 C 1704.04 1586.52 1693.98 1597.06 1683.06 1606.66 C 1648.72 1636.55 1604.86 1660.39 1562.59 1678 C 1364.07 1760.68 1116.27 1777.36 903.034 1765.27 C 744.869 1753.81 579.655 1728.26 437.374 1654.75 C 394.229 1632.46 365.484 1610.43 333.901 1574.26 L 334.764 1572.02 z" fill="rgb(244,218,168)" transform="translate(0,0)"></path>
<path d="M 1508.25 780.381 C 1521 778.468 1541.06 781.353 1553.31 785.185 C 1579.36 793.36 1601.06 811.605 1613.58 835.861 C 1638.76 884.554 1620.73 942.253 1571.29 966.962 C 1563.61 947.843 1560.38 933.164 1541.58 923.688 C 1536.08 921.792 1530.21 920.499 1524.57 922.052 C 1495.91 929.936 1466.05 942.33 1438.36 952.992 C 1424.6 938.025 1415.44 919.631 1413.16 899.305 C 1406.05 836.157 1445.1 787.205 1508.25 780.381 z" fill="rgb(229,85,99)" transform="translate(0,0)"></path>
<path d="M 1540.99 823.977 C 1553.09 823.867 1564.34 830.39 1571.12 840.012 C 1578.98 851.169 1587.54 864.713 1573.95 873.702 C 1554.71 871.943 1565.69 866.306 1556 853.499 C 1549.77 845.266 1517.12 838.04 1540.99 823.977 z" fill="rgb(247,246,241)" transform="translate(0,0)"></path>
<path d="M 528.129 779.419 L 529.769 779.397 C 558.825 779.44 586.663 791.071 607.113 811.712 C 626.452 831.45 637.117 858.088 636.742 885.719 C 636.566 911.06 628.494 934.084 610.355 952.04 C 583.07 944.962 547.839 926.878 521.502 920.949 C 489.327 925.168 488.078 938.713 476.713 965.059 C 419.244 941.693 408.424 857.481 450.188 814.95 C 473.753 790.952 494.853 781.444 528.129 779.419 z" fill="rgb(229,85,99)" transform="translate(0,0)"></path>
<path d="M 499.363 825.182 C 505.316 824.508 515.159 823.806 516.275 832.446 C 517.684 843.35 501.785 843.364 496.28 850.6 C 490.728 857.899 491.761 864.23 485.701 871.363 C 470.274 875.495 466.914 866.645 471.899 852.99 C 477.008 838.996 486.049 831.162 499.363 825.182 z" fill="rgb(247,246,241)" transform="translate(0,0)"></path>
<path d="M 850.394 662.394 C 882.436 657.134 917.463 673.293 940.968 694.003 C 930.898 713.953 928.676 724.2 929.078 746.237 C 886.708 758.019 861.088 790.245 856.447 833.456 L 844.112 826.774 C 823.43 817.75 809.304 815.41 786.602 814.631 C 784.291 802.945 778.287 783.176 772.472 772.807 C 765.578 760.513 757.555 757.645 745.192 754.281 C 751.527 734.156 755.119 721.562 769.11 704.78 C 789.814 679.945 818.457 665.542 850.394 662.394 z" fill="rgb(254,185,32)" transform="translate(0,0)"></path>
<path d="M 815.103 698.186 C 818.894 698.084 823.444 698.023 826.723 700.327 C 828.45 701.539 829.599 703.411 829.9 705.499 C 831.031 712.876 827.005 718.769 819.506 718.912 C 798.1 719.323 798.611 734.313 788.527 745.931 C 759.179 753.138 775.174 706.652 815.103 698.186 z" fill="rgb(247,246,241)" transform="translate(0,0)"></path>
<path d="M 1182.61 662.412 C 1226.8 658.651 1268.78 681.004 1291.23 719.446 C 1297.55 730.26 1300.61 741.635 1303.86 753.604 C 1282.33 759.718 1274.84 769.974 1268.4 790.833 C 1265.82 799.171 1263.42 806.245 1262.23 815.089 C 1249.12 815.242 1240.52 816.653 1227.68 819.331 C 1219.69 821.324 1213.95 823.27 1206.15 826.02 C 1196.6 778.519 1168.02 751.079 1120.23 743.825 C 1120.51 726.223 1117.21 712.094 1110.14 696.079 C 1132.16 674.256 1152.25 665.138 1182.61 662.412 z" fill="rgb(254,185,32)" transform="translate(0,0)"></path>
<path d="M 1228.25 696.957 C 1246.67 697.696 1265.71 709.546 1273.47 726.192 C 1278.99 738.045 1277.65 743.828 1266.34 748.477 C 1254.89 744.037 1259.42 741.354 1253.11 731.009 C 1246.71 720.514 1236.71 717.237 1225.04 716.617 C 1219.93 716.346 1216.1 708.533 1218.9 703.984 C 1221.38 699.687 1224 698.761 1228.25 696.957 z" fill="rgb(247,246,241)" transform="translate(0,0)"></path>
<path d="M 1107.21 753.409 C 1158.02 751.961 1187.5 783.375 1198.07 830.713 C 1166.33 849.222 1153.87 864.465 1136.03 895.145 C 1133.84 891.648 1131.16 888.015 1128.76 884.622 C 1127.76 883.348 1126.74 882.086 1125.71 880.836 C 1100.1 849.765 1066.97 836.849 1027.91 833.18 C 1031.53 787.292 1061.06 757.141 1107.21 753.409 z" fill="rgb(6,176,197)" transform="translate(0,0)"></path>
<path d="M 1014.7 657.26 C 1052.77 653.803 1086.88 672.25 1104.22 707.125 C 1109.92 718.594 1110.31 730.535 1110.53 743.115 C 1076.49 745.611 1053.53 757.36 1033.54 785.441 C 1031.32 785.603 1018.9 769.043 1013.56 764.715 C 989.696 745.352 968.544 741.804 938.917 744.276 C 936.146 696.631 969.603 664.706 1014.7 657.26 z" fill="rgb(6,176,197)" transform="translate(0,0)"></path>
<path d="M 1017.71 682.412 C 1038.95 679.991 1046.96 697.172 1028 703.006 C 1025.81 703.682 1017.37 702.58 1012.99 703.735 C 1008.14 705.015 1005.23 705.479 1000.35 707.58 C 995.165 710 991.312 712.575 986.144 708.83 C 984.202 707.446 982.908 705.331 982.559 702.972 C 982.197 700.261 982.965 697.519 984.684 695.391 C 992.165 686.064 1006.67 683.533 1017.71 682.412 z" fill="rgb(247,246,241)" transform="translate(0,0)"></path>
<path d="M 943.299 753.324 C 977.759 747.935 1008.24 766.897 1026.83 794.747 C 1020.87 810.144 1018.67 817.593 1017.82 833.854 C 985.57 834.672 953.811 848.872 930.426 870.92 C 923.161 878.14 918.27 884.736 912.201 892.966 C 896.598 864.91 889.491 859.371 866.215 839.481 C 867.251 819.048 870.171 805.133 883.02 788.371 C 898.686 767.935 918.023 756.872 943.299 753.324 z" fill="rgb(6,176,197)" transform="translate(0,0)"></path>
<path d="M 940.067 783.184 C 965.306 781.016 962.145 801.127 950.001 802.986 C 933.152 805.564 934.731 804.185 921.327 816.26 C 906.489 830.646 888.403 794.113 940.067 783.184 z" fill="rgb(247,246,241)" transform="translate(0,0)"></path>
<path d="M 512.33 932.267 C 522.056 931.338 529.228 933.166 538.858 937.001 C 566.121 947.995 596.729 955.823 622.607 969.395 C 634.827 975.804 630.061 997.294 625.223 1006.98 C 618.615 1020.21 617.634 1030.51 602.585 1036.86 C 592.817 1039.09 584.357 1035.26 575.284 1031.65 C 550.861 1021.94 526.044 1013.58 501.526 1004.14 C 471.805 992.698 487.535 967.006 495.315 946.296 C 498.437 938.053 504.676 934.818 512.33 932.267 z" fill="rgb(242,180,197)" transform="translate(0,0)"></path>
<path d="M 1523.9 932.201 C 1551.34 929.541 1559.62 959.235 1564.75 981.131 C 1563.06 986.851 1560.07 996.371 1554.38 999.221 C 1523.9 1014.51 1488.71 1024.62 1456.85 1036.93 C 1424.22 1042.17 1403.06 975.668 1432.74 965.866 C 1460.29 956.766 1496.33 938.617 1523.9 932.201 z" fill="rgb(242,180,197)" transform="translate(0,0)"></path>
<path d="M 817.632 1023.39 C 847.217 1024.57 876.815 1025.43 906.419 1025.97 C 916.899 1042.99 923.08 1050.34 937.249 1064.54 C 934.905 1084.48 934.216 1096.18 912.577 1102.03 C 882.064 1102.64 847.982 1099.38 817.234 1098.16 C 805.714 1097.7 793.93 1088.39 793.346 1076.1 C 792.281 1053.67 787.957 1027.28 817.632 1023.39 z" fill="rgb(242,180,197)" transform="translate(0,0)"></path>
<path d="M 1192.22 1023.43 C 1204.27 1022.55 1231.03 1019.85 1241.35 1028.08 C 1256.59 1040.22 1256.87 1092.91 1233.55 1097.05 C 1215.1 1100.33 1189.73 1099.86 1169.75 1100.4 C 1154.77 1100.98 1126.15 1104.86 1116.01 1094.06 C 1107.89 1085.42 1108.91 1076.99 1109.04 1066.4 C 1124.8 1051.94 1132.49 1044.04 1142.21 1024.94 C 1157.78 1025.22 1176.56 1024.11 1192.22 1023.43 z" fill="rgb(242,180,197)" transform="translate(0,0)"></path>
<path d="M 1302.3 764.173 C 1312.87 763.598 1397.17 788.415 1407.36 794.136 C 1411.17 796.327 1414.34 799.482 1416.55 803.284 C 1425.24 817.999 1415.1 828.002 1409.66 841.771 C 1407.32 847.695 1406.63 850.773 1405.21 856.955 C 1399.42 861.206 1397.34 862.417 1390.81 865.355 C 1367.84 867.003 1368.23 858.187 1352.87 845.717 C 1329.18 826.489 1302.32 817.731 1272.22 814.762 C 1277.89 794.645 1280.24 771.629 1302.3 764.173 z" fill="rgb(242,180,197)" transform="translate(0,0)"></path>
<path d="M 743.733 764.36 C 766.572 767.036 772.064 796.039 776.421 814.726 C 742.049 816.585 709.493 831.227 685.043 855.01 C 676.989 862.844 673.459 864.651 662.594 866.419 C 654.361 865.677 651.706 864.266 644.803 860.266 C 632.282 820.376 607.847 799.823 668.174 785.574 C 691.518 780.06 719.728 766.673 743.733 764.36 z" fill="rgb(242,180,197)" transform="translate(0,0)"></path>
<path d="M 1273.44 352.71 C 1287.02 372.906 1315.44 419.513 1272.99 427.482 C 1258.37 426.211 1252.04 419.304 1249.12 404.496 C 1245.59 386.573 1262.63 365.812 1273.44 352.71 z" fill="rgb(241,123,78)" transform="translate(0,0)"></path>
<path d="M 1030.9 289.579 C 1034.6 291.657 1051.54 322.768 1052.98 328.507 C 1057.28 345.596 1050.41 359.577 1032.75 363.611 C 1004.65 361.754 1002.81 336.215 1014.09 315.001 C 1018.53 306.662 1025.6 297.709 1030.9 289.579 z" fill="rgb(241,123,78)" transform="translate(0,0)"></path>
<path d="M 798.767 354.55 C 802.914 357.08 818.04 385.903 820.06 392.001 C 824.433 405.203 820.277 423.054 804.498 426.966 L 799.185 428.239 C 792.185 427.326 786.999 425.369 782.41 419.613 C 763.354 395.708 785.718 373.765 798.767 354.55 z" fill="rgb(241,123,78)" transform="translate(0,0)"></path>
<path d="M 1141.29 336.63 C 1144.86 340.812 1147.62 348.169 1151.21 352.478 C 1165.43 369.551 1175.02 404.93 1143.72 410.687 C 1131.46 409.618 1123.48 407.171 1119.89 393.519 C 1113.52 369.312 1130.13 356.744 1140.79 337.544 L 1141.29 336.63 z" fill="rgb(241,123,78)" transform="translate(0,0)"></path>
<path d="M 924.603 341.229 C 928.791 345.005 944.382 373.646 945.744 380.013 C 949.618 398.122 943.091 410.339 924.337 414.734 L 923.383 414.554 C 912.104 412.514 903.126 405.895 901.079 394.003 C 897.486 373.131 912.609 356.57 924.603 341.229 z" fill="rgb(241,123,78)" transform="translate(0,0)"></path>
<path d="M 940.357 592.755 C 941.699 597.165 941.261 628.722 941.152 634.977 C 930.072 644.308 923.21 654.148 913.11 664.155 C 912.46 664.799 906.125 661.547 905.411 661.225 C 900.906 658.316 902.942 635.851 902.982 629.474 C 911.69 620.419 931.336 600.408 940.357 592.755 z" fill="rgb(242,180,197)" transform="translate(0,0)"></path>
<path d="M 940.661 481.717 C 941.77 487.846 941.159 517.486 941.065 525.209 C 929.028 537.447 916.898 549.594 904.676 561.647 C 902.656 555.797 904.754 526.207 905.07 518.436 C 917.677 505.848 929.078 495.319 940.661 481.717 z" fill="rgb(242,180,197)" transform="translate(0,0)"></path>
<path d="M 1157.98 477.528 C 1158.07 491.501 1158 505.475 1157.77 519.446 C 1155.84 521.296 1153.22 523.238 1151.08 524.925 C 1149.4 528.379 1124.81 552.621 1120.76 556.848 C 1121.07 542.428 1121.2 528.005 1121.15 513.582 C 1124.93 510.032 1139.16 495.699 1142.16 493.872 C 1146.54 488.665 1153.06 482.423 1157.98 477.528 z" fill="rgb(242,180,197)" transform="translate(0,0)"></path>
<path d="M 1157.98 477.528 C 1158.07 491.501 1158 505.475 1157.77 519.446 C 1155.84 521.296 1153.22 523.238 1151.08 524.925 C 1151.69 522.952 1152.33 519.777 1153.71 519.847 C 1156.97 520.011 1155.45 489.871 1155.72 490.272 C 1151.94 491.501 1154.79 492.092 1150.47 490.635 C 1148.71 490.039 1145.46 492.918 1142.16 493.872 C 1146.54 488.665 1153.06 482.423 1157.98 477.528 z" fill="rgb(245,143,154)" transform="translate(0,0)"></path>
<path d="M 1155.69 586.88 C 1157.32 588.65 1155.89 623.514 1155.82 629.037 C 1144.6 640.38 1130.06 654.428 1119.87 665.969 C 1118.02 664.441 1119.15 630.286 1119.26 625.027 C 1132.53 612.176 1143.39 600.417 1155.69 586.88 z" fill="rgb(242,180,197)" transform="translate(0,0)"></path>
<path d="M 1043.7 539.846 C 1045.87 542.075 1044.58 575.941 1044.5 581.779 C 1032.19 594.996 1023.25 604.426 1009.88 617.083 C 1008.05 615.3 1009.03 580.694 1009.06 575.525 C 1021.8 563.627 1031.77 552.11 1043.7 539.846 z" fill="rgb(242,180,197)" transform="translate(0,0)"></path>
<path d="M 940.68 539.88 C 942.981 542.147 941.512 571.813 941.308 577.118 C 931.892 589.142 915.393 604.293 904.077 615.029 C 902.04 612.701 903.367 582.336 903.542 577.593 C 909.771 570.298 933.531 545.812 940.68 539.88 z" fill="rgb(245,219,220)" transform="translate(0,0)"></path>
<path d="M 1284.82 588.883 C 1287.01 591.208 1286.33 620.92 1286.33 626.219 C 1275.05 637.89 1261.2 651.204 1249.35 662.218 C 1246.61 659.664 1248.43 630.269 1248.9 624.919 C 1259.64 613.234 1273.21 599.812 1284.82 588.883 z" fill="rgb(6,176,197)" transform="translate(0,0)"></path>
<path d="M 1045.98 431.905 C 1046.79 435.462 1045.94 465.265 1045.91 471.131 C 1034.67 484.774 1022.6 495.978 1010.7 508.934 C 1009.9 504.673 1010.79 473.326 1010.82 466.431 C 1022.7 455.273 1034.06 443.255 1045.98 431.905 z" fill="rgb(242,180,197)" transform="translate(0,0)"></path>
<path d="M 814.511 573.779 C 817.099 576.291 816.006 601.85 815.829 607.341 L 815.256 608.267 C 808.846 618.84 788.237 639.336 778.959 648.552 C 776.305 646.978 777.751 616.374 777.895 611.66 C 790.194 599.05 801.858 586.198 814.511 573.779 z" fill="rgb(6,176,197)" transform="translate(0,0)"></path>
<path d="M 1156.94 534.01 C 1157.51 535.323 1157.58 535.426 1157.57 536.935 L 1157.3 572.848 C 1145.26 585.248 1132.97 596.677 1120.96 608.701 C 1119.03 607.14 1120.08 576.002 1120.15 571.251 C 1132.45 558.964 1144.72 545.981 1156.94 534.01 z" fill="rgb(245,219,220)" transform="translate(0,0)"></path>
<path d="M 1287.69 484.769 C 1288.71 491.081 1288.02 517.099 1287.7 524.28 C 1276.28 536.342 1263.29 547.066 1251.77 559.505 C 1250.38 554.949 1251.11 526.039 1251.43 520.076 C 1263.49 507.968 1275.5 497.349 1287.69 484.769 z" fill="rgb(6,176,197)" transform="translate(0,0)"></path>
<path d="M 1044.51 487.833 C 1046.6 489.955 1045.34 520.033 1045.3 525.346 C 1033.57 536.52 1022.12 547.99 1010.97 559.747 C 1008.95 558.178 1009.98 528.282 1010 523.416 C 1020.25 512.054 1033.55 498.602 1044.51 487.833 z" fill="rgb(245,219,220)" transform="translate(0,0)"></path>
<path d="M 1286.86 536.971 C 1287.66 538.43 1287.58 538.615 1287.52 540.481 C 1287.2 550.418 1287.02 560.358 1286.99 570.3 C 1274.88 584.089 1263.18 596.166 1250.38 609.209 C 1247.63 606.522 1250.24 579.443 1250.85 574.193 C 1262.83 561.681 1274.93 549.562 1286.86 536.971 z" fill="rgb(254,185,32)" transform="translate(0,0)"></path>
<path d="M 814.606 524.781 C 815.493 527.768 815.314 552.91 815.408 558.32 C 804.237 570.561 791.252 584.044 779.773 596.387 C 778.06 591.828 778.989 567.525 779.05 561.17 C 787.749 551.452 805.262 532.95 814.606 524.781 z" fill="rgb(254,185,32)" transform="translate(0,0)"></path>
<path d="M 814.528 474.697 C 815.851 478.723 815.205 503.054 815.203 509.169 C 803.644 522.042 790.646 533.877 779.808 546.79 C 778.52 541.918 779.906 516.345 780.032 509.088 C 789.006 499.132 804.124 485.577 814.528 474.697 z" fill="rgb(6,176,197)" transform="translate(0,0)"></path>
<path d="M 1122.53 448.39 L 1157.89 447.546 C 1157.87 453.309 1157.88 459.071 1157.92 464.833 C 1151.48 470.479 1146.37 475.33 1140.32 481.396 L 1122.01 499.991 C 1122.07 482.789 1122.24 465.589 1122.53 448.39 z" fill="rgb(254,185,32)" transform="translate(0,0)"></path>
<path d="M 1012.18 401.162 C 1023.75 400.818 1035.26 400.982 1046.84 401.018 L 1046.85 416.526 C 1040.64 422.584 1034.5 428.723 1028.45 434.94 C 1022.59 440.736 1016.78 446.594 1011.05 452.514 C 1011.07 438.036 1011.15 415.479 1012.18 401.162 z" fill="rgb(254,185,32)" transform="translate(0,0)"></path>
<path d="M 905.563 454.861 L 941.066 454.615 L 941.196 469.145 C 934.498 474.619 929.652 480.527 923.577 486.684 C 917.027 493.388 911.383 499.2 905.153 506.218 C 905.162 490.286 904.893 470.506 905.563 454.861 z" fill="rgb(244,218,168)" transform="translate(0,0)"></path>
<path d="M 1042.84 597.864 C 1045.05 600.089 1043.82 619.796 1043.95 624.282 C 1044.97 659.794 1043.13 643.417 1011.23 647.845 C 1006.67 647.506 1008.55 637.056 1008.53 632.911 C 1019.69 621.258 1032 609.591 1042.84 597.864 z" fill="rgb(245,143,154)" transform="translate(0,0)"></path>
<path d="M 814.534 624.832 C 816.009 626.33 815.757 627.359 815.662 629.469 C 815.154 639.576 815.208 649.703 815.824 659.804 C 800.191 666.283 790.912 672.331 777.664 682.647 C 775.421 681.8 776.992 667.218 777.08 664.393 C 787.914 652.582 803.449 635.746 814.534 624.832 z" fill="rgb(6,176,197)" transform="translate(0,0)"></path>
<path d="M 1284.74 641.917 C 1286.87 644.183 1284.27 686.316 1283.84 692.461 C 1279.51 688.37 1275.96 684.921 1271.33 681.073 C 1265.1 676.097 1262.9 674.271 1256.16 669.766 C 1265.27 659.682 1274.99 651.295 1284.74 641.917 z" fill="rgb(6,176,197)" transform="translate(0,0)"></path>
<path d="M 1252.33 469.085 C 1264.58 471.13 1275.77 471.008 1288.13 470.581 C 1282.51 477.074 1277.33 482.111 1271.22 488.129 C 1264.89 494.44 1258.57 500.192 1252.08 506.314 C 1252.28 493.905 1252.36 481.495 1252.33 469.085 z" fill="rgb(6,176,197)" transform="translate(0,0)"></path>
<path d="M 780.401 470.716 C 789.419 471.063 798.443 471.24 807.468 471.246 C 801.808 475.811 799.037 478.427 793.669 483.516 C 788.979 487.862 784.69 492.127 780.155 496.636 C 780.332 487.997 780.414 479.357 780.401 470.716 z" fill="rgb(6,176,197)" transform="translate(0,0)"></path>
<path d="M 1392.8 750.564 C 1407.43 752.719 1394.48 771.807 1387.41 776.423 C 1381.83 773.589 1377.16 773.089 1380.67 766.39 C 1384.05 759.929 1387.84 755.651 1392.8 750.564 z" fill="rgb(247,246,241)" transform="translate(0,0)"></path>
<path d="M 654.005 750.44 C 656.49 750.981 659.53 751.771 660.727 754.224 C 665.984 764.997 675.38 767.882 664.957 775.916 C 663.185 775.987 660.879 775.803 659.798 774.253 C 653.095 764.639 644.473 759.43 654.005 750.44 z" fill="rgb(247,246,241)" transform="translate(0,0)"></path>
<path d="M 939.954 649.045 C 941.455 651.051 940.828 676.47 940.824 680.935 C 937.549 678.137 935.529 676.481 932.069 673.949 C 928.893 671.864 925.769 670.072 922.55 667.91 C 928.197 661.199 933.902 655.375 939.954 649.045 z" fill="rgb(245,219,220)" transform="translate(0,0)"></path>
<path d="M 1154.89 644.037 C 1156 646.455 1155.27 654.138 1155.22 657.101 C 1147.17 659.647 1142.71 662.068 1135.29 665.995 C 1134.58 665.442 1134.78 665.655 1134.54 665.322 C 1134.69 664.316 1152.97 646.044 1154.89 644.037 z" fill="url(#Gradient1)" transform="translate(0,0)"></path>
<path d="M 1711.79 1572.99 C 1714.92 1569.62 1717.57 1567.29 1720.97 1564.28 C 1718.23 1568.33 1716.3 1571.35 1713.13 1575.16 L 1711.79 1572.99 z" fill="rgb(173,161,159)" transform="translate(0,0)"></path>
<path d="M 333.901 1574.26 C 333.059 1573.28 329.072 1569.04 329.494 1567.85 C 330.78 1567.34 333.929 1571.17 334.764 1572.02 L 333.901 1574.26 z" fill="rgb(173,161,159)" transform="translate(0,0)"></path>
<metadata><recraft-signature>{"signed_by": "recraft", "signature_b64": "dSRI2nM9cBgwXdzret5BegFNVp3OdfZW2b0dkD5C7P9OYvzZH0X6/iyYEm1bf84qY+wxp+hPh787gQdNOnjNAw==", "signing_algo": "Ed25519", "generation_timestamp": 1776479684, "identifier": "326a4206-fdf9-494d-922f-f1caddf4b2b4"}</recraft-signature></metadata></svg>